<?xml version="1.0" encoding="utf-8"?>
<!-- Generator: Adobe Illustrator 26.5.3, SVG Export Plug-In . SVG Version: 6.00 Build 0)  -->
<svg version="1.1" id="Слой_1" xmlns="http://www.w3.org/2000/svg" xmlns:xlink="http://www.w3.org/1999/xlink" x="0px" y="0px"
	 viewBox="0 0 904 397" style="enable-background:new 0 0 904 397;" xml:space="preserve">
<style type="text/css">
	.st0{fill:#FFFFFF;}
</style>
<path class="st0" d="M83.5,351.1c-8.1-7.8-12.1-19.2-12.1-34.3v-76c0-9.6-1.7-16.2-5-19.7c-3.4-3.4-9.8-5.2-19.4-5.2v-37.2
	c9.5,0,16-1.7,19.4-5.2s5-10,5-19.7v-76c0-15.1,4-26.6,12.1-34.3c8-7.8,18.3-11.5,31-11.5h21.7v37.2H130c-7,0-12.2,2.1-15.5,6.4
	c-3.4,4.3-5,11.9-5,23v62c0,19.3-7.9,31.4-23.7,36.4v0.8c15.8,4.9,23.7,17.1,23.7,36.4v62c0,11,1.7,18.7,5,23
	c3.4,4.3,8.5,6.4,15.5,6.4h6.2v37.3h-21.7C101.8,362.7,91.5,358.8,83.5,351.1z"/>
<path class="st0" d="M198.6,52.6h57.7L300.5,342h-42.7l-7.8-57.5v0.8h-48.4l-7.8,56.6h-39.5L198.6,52.6z M245.1,246.1l-18.9-143
	h-0.8l-18.6,143H245.1z"/>
<path class="st0" d="M314.1,301.5l79-207.5H318V52.6h121v40.6l-79.1,207.6H439v41.4H314.1V301.5z"/>
<path class="st0" d="M462.9,52.6h42.7v121.9l54.3-121.9h42.7l-50.8,106.3L603.3,342h-44.6l-36-129l-17.1,36.8V342h-42.7V52.6
	L462.9,52.6z"/>
<path class="st0" d="M623.4,52.6h63.2c22,0,38,5.5,48.1,16.4s15.1,27.6,15.1,50.2V137c0,30-9.3,49.1-27.9,57v0.8
	c10.3,3.3,17.7,10,21.9,20.2c4.3,10.2,6.4,23.9,6.4,41v50.9c0,8.3,0.3,15,0.8,20.1s1.8,10.2,3.9,15.1h-43.4
	c-1.5-4.7-2.6-9.1-3.1-13.3c-0.5-4.1-0.8-11.5-0.8-22.3v-52.9c0-13.3-2-22.5-6-27.7s-10.9-7.9-20.7-7.9h-14.7v124h-42.7L623.4,52.6
	L623.4,52.6z M681.5,176.7c8.5,0,15-2.3,19.2-7c4.3-4.7,6.4-12.6,6.4-23.6v-22.3c0-10.4-1.7-18.1-5.3-22.8c-3.5-4.7-9-7-16.4-7H666
	v82.7L681.5,176.7L681.5,176.7z"/>
<path class="st0" d="M773.4,325.5h6.2c7,0,12.2-2.1,15.5-6.4c3.4-4.3,5-11.9,5-23v-62c0-19.2,7.9-31.4,23.7-36.4V197
	c-15.8-4.9-23.7-17.1-23.7-36.4V98.5c0-11-1.7-18.7-5-23c-3.4-4.3-8.5-6.4-15.5-6.4h-6.2V31.9h21.7c12.6,0,23,3.8,31,11.5
	c8,7.8,12.1,19.2,12.1,34.3v76c0,9.6,1.7,16.2,5,19.7c3.4,3.4,9.8,5.2,19.4,5.2v37.2c-9.5,0-16,1.7-19.4,5.2c-3.4,3.4-5,10-5,19.7
	v76c0,15.1-4,26.6-12.1,34.3c-8,7.7-18.4,11.5-31,11.5h-21.7V325.5z"/>
</svg>
